<?xml version="1.0" encoding="UTF-8" standalone="no"?>
<!-- Generator: Adobe Illustrator 27.5.0, SVG Export Plug-In . SVG Version: 6.00 Build 0)  -->

<svg
   xmlns:dc="http://purl.org/dc/elements/1.1/"
   xmlns:cc="http://creativecommons.org/ns#"
   xmlns:rdf="http://www.w3.org/1999/02/22-rdf-syntax-ns#"
   xmlns:svg="http://www.w3.org/2000/svg"
   xmlns="http://www.w3.org/2000/svg"
   xmlns:sodipodi="http://sodipodi.sourceforge.net/DTD/sodipodi-0.dtd"
   xmlns:inkscape="http://www.inkscape.org/namespaces/inkscape"
   version="1.1"
   id="レイヤー_1"
   x="0px"
   y="0px"
   viewBox="0 0 65.357 14.592408"
   xml:space="preserve"
   inkscape:version="0.48.2 r9819"
   width="100%"
   height="100%"
   sodipodi:docname="about_heading.svg"><metadata
   id="metadata38"><rdf:RDF><cc:Work
       rdf:about=""><dc:format>image/svg+xml</dc:format><dc:type
         rdf:resource="http://purl.org/dc/dcmitype/StillImage" /></cc:Work></rdf:RDF></metadata><defs
   id="defs36" /><sodipodi:namedview
   pagecolor="#ffffff"
   bordercolor="#666666"
   borderopacity="1"
   objecttolerance="10"
   gridtolerance="10"
   guidetolerance="10"
   inkscape:pageopacity="0"
   inkscape:pageshadow="2"
   inkscape:window-width="651"
   inkscape:window-height="480"
   id="namedview34"
   showgrid="false"
   fit-margin-top="0"
   fit-margin-left="0"
   fit-margin-right="0"
   fit-margin-bottom="0"
   inkscape:zoom="8.3082149"
   inkscape:cx="32.678499"
   inkscape:cy="7.2964082"
   inkscape:window-x="0"
   inkscape:window-y="0"
   inkscape:window-maximized="0"
   inkscape:current-layer="レイヤー_1" />
<g
   id="ABOUT"
   transform="translate(-1.1120645e-6,0)">
	
		<linearGradient
   id="path10024_00000107550778832884742400000006898325602104479104_"
   gradientUnits="userSpaceOnUse"
   x1="9.5703117e-006"
   y1="2677.9849"
   x2="65.356903"
   y2="2677.9849"
   gradientTransform="matrix(1,0,0,-1,-9.570312e-6,2685.2712)">
		<stop
   offset="0"
   style="stop-color:#59ADB1"
   id="stop5" />
		<stop
   offset="1"
   style="stop-color:#CF8E9D"
   id="stop7" />
	</linearGradient>
	<path
   id="path10024"
   style="fill:url(#path10024_00000107550778832884742400000006898325602104479104_)"
   d="M 4.864,6.992 C 5.074,6.257 5.281,5.5 5.484,4.722 5.687,3.944 5.879,3.168 6.061,2.395 H 6.156 C 6.354,3.16 6.552,3.934 6.75,4.715 6.948,5.496 7.155,6.256 7.372,6.993 L 7.79,8.531 H 4.446 L 4.864,6.992 z M 0,14.326 h 2.85 l 0.988,-3.61 h 4.56 l 0.988,3.61 h 2.945 L 7.809,0.247 H 4.503 L 0,14.326 z"
   inkscape:connector-curvature="0" />
	
		<linearGradient
   id="path10026_00000111903880043983334800000000233790895228234908_"
   gradientUnits="userSpaceOnUse"
   x1="9.5703117e-006"
   y1="2677.9854"
   x2="65.356903"
   y2="2677.9854"
   gradientTransform="matrix(1,0,0,-1,-9.570312e-6,2685.2712)">
		<stop
   offset="0"
   style="stop-color:#59ADB1"
   id="stop11" />
		<stop
   offset="1"
   style="stop-color:#CF8E9D"
   id="stop13" />
	</linearGradient>
	<path
   id="path10026"
   style="fill:url(#path10026_00000111903880043983334800000000233790895228234908_)"
   d="m 13.977,14.326 h 5.016 c 1.582,0.004 2.878,-0.332 3.888,-1.009 1.01,-0.677 1.531,-1.721 1.565,-3.133 C 24.431,9.237 24.181,8.49 23.696,7.944 23.211,7.398 22.581,7.036 21.806,6.859 V 6.764 C 22.41,6.535 22.879,6.138 23.214,5.572 23.549,5.006 23.719,4.39 23.725,3.724 23.693,2.432 23.206,1.525 22.262,1.002 21.318,0.48 20.109,0.228 18.633,0.247 H 13.978 L 13.977,14.326 z M 16.789,5.985 V 2.413 h 1.672 c 0.845,-0.005 1.478,0.129 1.898,0.401 0.42,0.273 0.63,0.715 0.629,1.328 0.005,0.567 -0.2,1.015 -0.613,1.342 -0.413,0.327 -1.064,0.494 -1.952,0.501 h -1.634 z m 0,6.175 V 8.056 h 1.957 c 0.971,-0.004 1.708,0.151 2.209,0.466 0.501,0.314 0.753,0.811 0.755,1.492 -0.004,0.729 -0.258,1.27 -0.762,1.622 -0.504,0.352 -1.239,0.527 -2.202,0.525 h -1.957 z"
   inkscape:connector-curvature="0" />
	
		<linearGradient
   id="path10028_00000126286704364609255270000013586581391826299563_"
   gradientUnits="userSpaceOnUse"
   x1="9.5703117e-006"
   y1="2677.9753"
   x2="65.356903"
   y2="2677.9753"
   gradientTransform="matrix(1,0,0,-1,-9.570312e-6,2685.2712)">
		<stop
   offset="0"
   style="stop-color:#59ADB1"
   id="stop17" />
		<stop
   offset="1"
   style="stop-color:#CF8E9D"
   id="stop19" />
	</linearGradient>
	<path
   id="path10028"
   style="fill:url(#path10028_00000126286704364609255270000013586581391826299563_)"
   d="m 32.514,14.592 c 1.891,-0.021 3.405,-0.677 4.541,-1.966 C 38.191,11.337 38.774,9.541 38.803,7.24 38.774,4.943 38.191,3.167 37.055,1.911 35.919,0.655 34.405,0.017 32.514,0 c -1.891,0.016 -3.405,0.65 -4.541,1.902 -1.136,1.253 -1.719,3.032 -1.748,5.337 0.029,2.301 0.612,4.097 1.748,5.386 1.136,1.289 2.65,1.945 4.541,1.967 z m 0,-2.432 C 31.457,12.143 30.626,11.698 30.02,10.825 29.414,9.952 29.106,8.757 29.094,7.239 29.106,5.716 29.415,4.534 30.02,3.693 c 0.606,-0.841 1.437,-1.268 2.494,-1.28 1.057,0.012 1.888,0.439 2.494,1.28 0.606,0.841 0.914,2.023 0.926,3.546 -0.012,1.518 -0.321,2.714 -0.926,3.586 -0.605,0.872 -1.437,1.317 -2.494,1.335 z"
   inkscape:connector-curvature="0" />
	
		<linearGradient
   id="path10030_00000054249900933528087160000009046667396921707916_"
   gradientUnits="userSpaceOnUse"
   x1="9.5703117e-006"
   y1="2677.8516"
   x2="65.356903"
   y2="2677.8516"
   gradientTransform="matrix(1,0,0,-1,-9.570312e-6,2685.2712)">
		<stop
   offset="0"
   style="stop-color:#59ADB1"
   id="stop23" />
		<stop
   offset="1"
   style="stop-color:#CF8E9D"
   id="stop25" />
	</linearGradient>
	<path
   id="path10030"
   style="fill:url(#path10030_00000054249900933528087160000009046667396921707916_)"
   d="m 46.945,14.592 c 1.731,0.017 3.066,-0.497 4.007,-1.544 0.94,-1.047 1.416,-2.73 1.427,-5.049 V 0.247 h -2.698 v 7.999 c -0.01,1.443 -0.256,2.461 -0.741,3.054 -0.485,0.593 -1.149,0.88 -1.995,0.86 -0.826,0.02 -1.473,-0.267 -1.943,-0.86 -0.47,-0.593 -0.709,-1.611 -0.717,-3.054 V 0.247 h -2.812 v 7.752 c 0.014,2.32 0.499,4.003 1.453,5.049 0.955,1.047 2.295,1.561 4.019,1.544 z"
   inkscape:connector-curvature="0" />
	
		<linearGradient
   id="path10032_00000172434784213985083630000010936407849458126998_"
   gradientUnits="userSpaceOnUse"
   x1="9.5703117e-006"
   y1="2677.9849"
   x2="65.356903"
   y2="2677.9849"
   gradientTransform="matrix(1,0,0,-1,-9.570312e-6,2685.2712)">
		<stop
   offset="0"
   style="stop-color:#59ADB1"
   id="stop29" />
		<stop
   offset="1"
   style="stop-color:#CF8E9D"
   id="stop31" />
	</linearGradient>
	<path
   id="path10032"
   style="fill:url(#path10032_00000172434784213985083630000010936407849458126998_)"
   d="m 58.555,14.326 h 2.812 V 2.603 h 3.99 V 0.247 H 54.603 v 2.356 h 3.952 v 11.723 z"
   inkscape:connector-curvature="0" />
</g>
</svg>