<?xml version="1.0" encoding="UTF-8" standalone="no"?>
<!-- Created with Inkscape (http://www.inkscape.org/) -->

<svg
   xmlns:dc="http://purl.org/dc/elements/1.1/"
   xmlns:cc="http://creativecommons.org/ns#"
   xmlns:rdf="http://www.w3.org/1999/02/22-rdf-syntax-ns#"
   xmlns:svg="http://www.w3.org/2000/svg"
   xmlns="http://www.w3.org/2000/svg"
   xmlns:sodipodi="http://sodipodi.sourceforge.net/DTD/sodipodi-0.dtd"
   xmlns:inkscape="http://www.inkscape.org/namespaces/inkscape"
   width="491.03339"
   height="82.244812"
   id="svg3752"
   version="1.1"
   inkscape:version="0.48.2 r9819"
   sodipodi:docname="新規ドキュメント 2">
  <defs
     id="defs3754" />
  <sodipodi:namedview
     id="base"
     pagecolor="#ffffff"
     bordercolor="#666666"
     borderopacity="1.0"
     inkscape:pageopacity="0.0"
     inkscape:pageshadow="2"
     inkscape:zoom="0.35"
     inkscape:cx="334.80242"
     inkscape:cy="-27.449017"
     inkscape:document-units="px"
     inkscape:current-layer="layer1"
     showgrid="false"
     fit-margin-top="0"
     fit-margin-left="0"
     fit-margin-right="0"
     fit-margin-bottom="0"
     inkscape:window-width="651"
     inkscape:window-height="433"
     inkscape:window-x="52"
     inkscape:window-y="52"
     inkscape:window-maximized="0" />
  <metadata
     id="metadata3757">
    <rdf:RDF>
      <cc:Work
         rdf:about="">
        <dc:format>image/svg+xml</dc:format>
        <dc:type
           rdf:resource="http://purl.org/dc/dcmitype/StillImage" />
        <dc:title></dc:title>
      </cc:Work>
    </rdf:RDF>
  </metadata>
  <g
     inkscape:label="レイヤー 1"
     inkscape:groupmode="layer"
     id="layer1"
     transform="translate(-40.197584,-402.66835)">
    <g
       id="g3691"
       transform="translate(38.246144,402.42035)"
       style="fill:#2c2c46;fill-opacity:1">
      <g
         id="g3633"
         style="fill:#2c2c46;fill-opacity:1;enable-background:new">
        <path
           id="path3635"
           d="M 6.691,31.136 1.972,5.512 C 1.855,4.81 2.245,4.342 2.947,4.342 h 4.758 c 0.507,0 0.897,0.352 0.975,0.858 l 1.638,11.7 0.585,4.368 c 0.351,2.613 0.897,2.613 1.404,0.039 0.312,-1.482 0.624,-2.964 0.897,-4.407 L 15.856,5.122 c 0.078,-0.468 0.468,-0.78 0.936,-0.78 h 4.017 c 0.468,0 0.858,0.312 0.937,0.741 l 2.73,11.817 c 0.273,1.443 0.546,2.925 0.858,4.407 0.468,2.613 1.014,2.574 1.365,-0.039 L 27.284,16.9 28.96,5.161 c 0.078,-0.468 0.468,-0.819 0.975,-0.819 h 4.251 c 0.702,0 1.092,0.468 0.975,1.131 l -4.446,25.624 c -0.117,0.507 -0.468,0.819 -0.975,0.819 h -6.708 c -0.468,0 -0.858,-0.312 -0.936,-0.78 l -2.34,-11.232 c -0.429,-2.105 -0.819,-4.329 -1.053,-6.396 h -0.195 c -0.351,2.066 -0.663,4.29 -1.092,6.396 l -2.262,11.232 c -0.078,0.468 -0.468,0.78 -0.936,0.78 H 7.666 c -0.507,0 -0.897,-0.312 -0.975,-0.78 z"
           style="fill:#2c2c46;fill-opacity:1"
           inkscape:connector-curvature="0" />
        <path
           id="path3637"
           d="M 40.66,30.941 V 5.317 c 0,-0.585 0.39,-0.976 0.975,-0.976 h 15.522 c 0.585,0 0.975,0.391 0.975,0.976 v 3.549 c 0,0.585 -0.39,0.975 -0.975,0.975 h -8.893 c -0.585,0 -0.975,0.391 -0.975,0.976 v 3.159 c 0,0.585 0.39,0.975 0.975,0.975 h 7.254 c 0.585,0 0.975,0.391 0.975,0.976 v 3.588 c 0,0.585 -0.39,0.975 -0.975,0.975 h -7.254 c -0.585,0 -0.975,0.391 -0.975,0.976 v 3.899 c 0,0.586 0.39,0.976 0.975,0.976 h 9.322 c 0.585,0 0.975,0.39 0.975,0.975 v 3.628 c 0,0.585 -0.39,0.975 -0.975,0.975 H 41.635 C 41.049,31.916 40.66,31.526 40.66,30.941 z"
           style="fill:#2c2c46;fill-opacity:1"
           inkscape:connector-curvature="0" />
        <path
           id="path3639"
           d="M 65.269,30.941 V 5.317 c 0,-0.585 0.39,-0.976 0.975,-0.976 h 8.658 c 5.694,0 10.256,1.521 10.256,6.825 0,1.561 -0.546,3.198 -1.481,4.407 -0.976,1.287 -0.897,1.833 0.429,2.887 1.404,1.131 2.34,2.886 2.34,5.304 0,5.616 -4.758,8.151 -10.764,8.151 h -9.438 c -0.586,0.001 -0.975,-0.389 -0.975,-0.974 z m 7.215,-15.678 h 2.145 c 2.808,0 4.095,-1.209 4.095,-3.081 0,-1.989 -1.326,-2.809 -4.095,-2.809 h -2.145 c -0.351,0 -0.585,0.234 -0.585,0.585 v 4.72 c -0.001,0.35 0.234,0.585 0.585,0.585 z m 0,11.583 h 2.691 c 3.198,0 4.836,-1.17 4.836,-3.51 0,-2.263 -1.599,-3.159 -4.836,-3.159 h -2.691 c -0.351,0 -0.585,0.233 -0.585,0.585 v 5.499 c -0.001,0.35 0.234,0.585 0.585,0.585 z"
           style="fill:#2c2c46;fill-opacity:1"
           inkscape:connector-curvature="0" />
        <path
           id="path3641"
           d="m 118.621,9.178 h 0.896 c 1.482,0 2.418,-0.039 3.315,-0.116 0.702,-0.078 1.131,0.312 1.131,0.975 v 3.588 c 0,0.663 -0.429,1.054 -1.092,1.015 -0.858,-0.039 -1.911,-0.039 -3.315,-0.039 h -1.365 c -0.272,0 -0.468,0.194 -0.468,0.429 v 0.468 c 0,8.386 -2.574,14.392 -11.193,18.37 -0.351,0.156 -0.78,0.078 -1.053,-0.195 l -2.926,-2.847 c -0.662,-0.663 -0.507,-1.326 0.391,-1.678 6.201,-2.379 9.048,-5.928 9.048,-13.494 v -0.546 c 0,-0.312 -0.194,-0.507 -0.507,-0.507 h -6.552 c -0.585,0 -0.976,0.39 -0.976,0.975 v 3.042 c 0,1.17 0.039,2.224 0.078,3.042 0.039,0.624 -0.351,1.054 -0.975,1.054 h -3.979 c -0.624,0 -1.014,-0.43 -0.975,-1.054 0.078,-0.818 0.116,-1.872 0.116,-3.042 v -3.042 c 0,-0.585 -0.39,-0.975 -0.975,-0.975 h -1.443 c -1.326,0 -2.262,0.039 -3.042,0.078 -0.624,0.039 -1.053,-0.352 -1.053,-0.976 V 9.958 c 0,-0.702 0.429,-1.053 1.092,-0.975 0.78,0.117 1.794,0.194 3.003,0.194 h 1.443 c 0.585,0 0.975,-0.39 0.975,-0.975 V 6.175 C 98.22,5.239 98.143,4.342 98.104,3.601 98.026,2.977 98.416,2.548 99.04,2.548 h 4.018 c 0.702,0 1.053,0.429 1.014,1.092 -0.078,0.741 -0.117,1.6 -0.117,2.574 v 1.989 c 0,0.585 0.391,0.975 0.976,0.975 h 6.084 c 0.585,0 0.975,-0.39 0.975,-0.975 V 5.746 c 0,-0.897 -0.039,-1.716 -0.077,-2.457 -0.078,-0.663 0.312,-1.131 1.014,-1.131 h 3.979 c 0.662,0 1.053,0.429 0.975,1.092 -0.078,0.741 -0.156,1.56 -0.156,2.496 v 2.535 c -10e-4,0.546 0.35,0.897 0.896,0.897 z"
           style="fill:#2c2c46;fill-opacity:1"
           inkscape:connector-curvature="0" />
        <path
           id="path3643"
           d="m 152.044,14.248 v 14.236 c 0,1.209 0.039,2.847 0.155,4.056 0.078,0.78 -0.312,1.287 -1.092,1.287 h -4.68 c -0.663,0 -1.054,-0.468 -1.015,-1.131 0.117,-1.209 0.195,-2.926 0.195,-4.212 V 18.89 c 0,-0.937 -0.546,-1.287 -1.404,-0.897 -3.159,1.482 -6.669,2.848 -10.023,3.783 -0.429,0.117 -0.857,-0.078 -1.092,-0.429 l -2.067,-3.627 c -0.429,-0.702 -0.155,-1.287 0.624,-1.443 6.124,-1.443 11.779,-3.979 15.679,-6.396 3.394,-2.105 6.786,-5.031 9.01,-7.644 0.39,-0.469 0.975,-0.547 1.442,-0.117 l 3.237,2.925 c 0.469,0.429 0.469,0.976 0.039,1.404 -2.651,2.535 -5.499,4.914 -8.58,6.981 -0.234,0.155 -0.428,0.467 -0.428,0.818 z"
           style="fill:#2c2c46;fill-opacity:1"
           inkscape:connector-curvature="0" />
        <path
           id="path3645"
           d="m 199.78,18.577 -1.833,4.446 c -0.234,0.585 -0.78,0.78 -1.326,0.507 -3.198,-1.599 -7.138,-3.12 -10.491,-4.368 -0.78,-0.272 -1.287,0.078 -1.287,0.937 v 8.112 c 0,0.819 0.116,2.847 0.272,4.485 0.078,0.663 -0.312,1.092 -0.975,1.092 h -4.798 c -0.662,0 -1.053,-0.429 -0.975,-1.131 0.156,-1.443 0.273,-3.237 0.273,-4.446 V 7.072 c 0,-1.092 -0.078,-2.457 -0.234,-3.666 -0.117,-0.702 0.273,-1.17 0.975,-1.17 h 4.72 c 0.663,0 1.053,0.429 0.975,1.092 -0.117,1.131 -0.233,2.379 -0.233,3.744 v 4.329 c 0,0.429 0.272,0.819 0.701,0.936 4.524,1.365 10.492,3.511 13.768,4.992 0.507,0.234 0.663,0.741 0.468,1.248 z"
           style="fill:#2c2c46;fill-opacity:1"
           inkscape:connector-curvature="0" />
        <path
           id="path3647"
           d="m 210.075,5.98 c 1.131,-0.039 2.145,-0.078 2.729,-0.156 3.433,-0.273 8.971,-0.741 15.679,-1.326 3.237,-0.273 7.021,-0.468 9.673,-0.585 0.624,-0.039 1.014,0.351 1.014,0.975 l 0.039,3.705 c 0,0.585 -0.39,0.976 -0.975,0.976 -1.872,0.039 -4.329,0.117 -6.085,0.468 -3.938,0.858 -7.371,5.188 -7.371,9.517 0,5.031 4.407,7.215 10.141,7.8 0.78,0.039 1.131,0.546 0.896,1.287 l -1.442,4.251 c -0.156,0.469 -0.546,0.702 -0.976,0.663 -7.878,-0.818 -14.469,-5.226 -14.469,-12.831 0,-3.471 1.286,-6.436 2.729,-8.502 1.015,-1.404 0.741,-2.067 -1.053,-1.872 -2.964,0.351 -6.825,0.857 -9.945,1.481 -0.663,0.156 -1.131,-0.195 -1.209,-0.857 l -0.352,-3.9 c -0.037,-0.626 0.353,-1.054 0.977,-1.094 z m 24.453,7.332 c 0.663,1.014 1.443,2.301 1.989,3.393 0.273,0.547 0.078,1.054 -0.468,1.287 l -1.482,0.663 c -0.546,0.234 -1.053,0.039 -1.287,-0.468 -0.585,-1.248 -1.092,-2.184 -1.716,-3.198 -0.429,-0.624 -0.233,-1.209 0.43,-1.481 l 1.364,-0.547 c 0.469,-0.194 0.937,-0.039 1.17,0.351 z m 4.213,-1.793 c 0.663,1.014 1.481,2.223 2.105,3.275 0.312,0.547 0.117,1.093 -0.429,1.326 l -1.482,0.702 c -0.507,0.273 -1.014,0.078 -1.286,-0.429 -0.625,-1.209 -1.171,-2.106 -1.873,-3.12 -0.39,-0.585 -0.272,-1.17 0.391,-1.482 l 1.365,-0.624 c 0.468,-0.194 0.936,-0.039 1.209,0.352 z"
           style="fill:#2c2c46;fill-opacity:1"
           inkscape:connector-curvature="0" />
        <path
           id="path3649"
           d="m 269.238,10.66 3.472,0.819 c 0.546,0.117 0.78,0.546 0.585,1.053 -0.156,0.507 0.039,0.976 0.546,1.209 3.666,1.6 6.123,4.759 6.123,8.814 0,5.031 -2.729,10.219 -11.466,11.7 -0.391,0.078 -0.741,-0.117 -0.976,-0.429 l -1.755,-2.77 c -0.468,-0.818 -0.195,-1.364 0.702,-1.56 6.123,-1.131 7.995,-4.485 7.995,-7.216 0,-1.56 -0.702,-2.964 -2.106,-3.938 -0.507,-0.352 -1.053,-0.117 -1.287,0.429 -1.833,4.057 -4.251,7.254 -6.552,9.321 -0.312,0.273 -0.429,0.663 -0.312,1.053 l 0.312,0.976 c 0.156,0.585 -0.078,1.092 -0.663,1.287 l -3.51,1.014 c -0.391,0.117 -0.741,-0.039 -0.858,-0.429 -0.117,-0.391 -0.429,-0.507 -0.819,-0.352 -1.442,0.586 -3.081,0.976 -4.719,0.976 -2.887,0 -5.305,-1.716 -5.305,-5.772 0,-4.563 3.55,-9.36 8.425,-11.935 0.312,-0.155 0.507,-0.507 0.546,-0.857 0.039,-1.054 0.117,-2.146 0.234,-3.198 v -0.078 c 0,-0.156 -0.078,-0.234 -0.234,-0.234 h -0.312 c -1.833,0 -4.134,-0.156 -5.928,-0.233 -0.546,-0.039 -0.897,-0.391 -0.936,-0.937 L 250.362,6.37 c -0.039,-0.702 0.429,-1.092 1.131,-1.014 1.56,0.155 3.939,0.351 6.006,0.351 h 0.468 c 0.234,0 0.43,-0.195 0.469,-0.39 V 5.239 l 0.078,-1.015 0.116,-1.364 c 0.039,-0.624 0.43,-1.054 1.054,-1.015 l 3.588,0.039 c 0.663,0.039 0.975,0.468 0.819,1.131 l -0.273,1.093 -0.156,0.74 c -0.078,0.43 0.195,0.741 0.624,0.702 3.628,-0.117 6.786,-0.507 10.219,-1.248 0.741,-0.156 1.209,0.234 1.209,0.937 l 0.039,3.042 c 0,0.507 -0.312,0.896 -0.819,0.975 -3.12,0.508 -7.293,0.897 -11.232,1.093 -0.507,0.038 -0.896,0.39 -0.936,0.896 l -0.039,0.468 c -0.078,0.819 0.39,1.209 1.17,1.093 1.209,-0.195 2.496,-0.312 3.744,-0.312 0.078,0 0.195,-0.039 0.234,-0.078 0.077,0 0.116,-0.078 0.116,-0.155 l 0.117,-0.78 c 0.078,-0.626 0.506,-0.977 1.13,-0.821 z m -11.426,15.874 c 0.233,-0.117 0.351,-0.352 0.312,-0.624 -0.233,-1.482 -0.39,-3.12 -0.507,-4.798 -0.039,-0.663 -0.429,-0.818 -0.936,-0.39 -1.756,1.599 -2.809,3.549 -2.809,4.914 0,1.014 0.351,1.561 1.443,1.561 0.741,0 1.56,-0.195 2.497,-0.663 z m 5.81,-4.837 c 0.897,-1.092 1.756,-2.34 2.496,-3.822 0.234,-0.507 0,-0.857 -0.546,-0.779 -0.975,0.117 -1.833,0.272 -2.651,0.468 -0.273,0.078 -0.469,0.312 -0.469,0.585 0.039,1.17 0.117,2.223 0.195,3.237 0.079,0.78 0.507,0.896 0.975,0.311 z"
           style="fill:#2c2c46;fill-opacity:1"
           inkscape:connector-curvature="0" />
        <path
           id="path3651"
           d="m 305.703,6.799 0.078,3.081 c 0.039,0.469 -0.272,0.858 -0.702,0.976 -1.325,0.312 -3.042,0.663 -4.875,0.975 -0.351,0.039 -0.663,0.312 -0.779,0.624 -1.639,4.72 -4.33,10.258 -7.021,14.313 -0.273,0.43 -0.78,0.546 -1.209,0.312 l -3.55,-1.755 c -0.663,-0.312 -0.779,-0.937 -0.351,-1.482 2.457,-3.354 4.758,-7.527 6.24,-10.882 0.156,-0.312 0,-0.507 -0.351,-0.507 h -0.625 c -1.286,0 -2.534,0 -3.899,-0.078 -0.507,-0.039 -0.858,-0.39 -0.897,-0.896 l -0.233,-3.198 c -0.078,-0.741 0.39,-1.17 1.131,-1.092 1.403,0.194 2.925,0.272 3.861,0.272 0.74,0 1.442,-0.039 2.184,-0.078 0.39,0 0.741,-0.312 0.819,-0.702 0.312,-1.325 0.546,-2.729 0.624,-4.056 0.078,-0.585 0.468,-0.976 1.092,-0.897 l 3.939,0.352 c 0.702,0.078 1.014,0.546 0.857,1.209 -0.116,0.546 -0.272,1.131 -0.429,1.794 -0.234,0.937 0.195,1.404 1.131,1.209 0.585,-0.117 1.17,-0.272 1.716,-0.39 0.742,-0.196 1.211,0.155 1.249,0.896 z m 0.702,6.631 h 3.511 c 0.624,0 1.014,0.429 1.014,1.053 -0.039,1.287 0,2.652 0.039,4.095 0.039,0.702 0.078,1.794 0.156,3.004 0.039,0.351 0.272,0.701 0.624,0.857 2.613,1.092 4.758,2.574 6.435,4.018 0.352,0.312 0.43,0.818 0.156,1.209 l -1.872,3.081 c -0.39,0.624 -0.975,0.702 -1.481,0.234 -0.663,-0.586 -1.365,-1.21 -2.146,-1.873 -0.858,-0.662 -1.404,-0.351 -1.677,0.663 -0.663,2.613 -2.77,4.407 -7.216,4.407 -4.875,0 -8.658,-2.262 -8.658,-6.513 0,-3.666 2.925,-6.825 8.58,-6.825 0.312,0 0.663,0 0.976,0.039 0.546,0.039 0.896,-0.312 0.896,-0.897 -0.116,-1.872 -0.194,-3.9 -0.312,-5.538 10e-4,-0.586 0.39,-1.014 0.975,-1.014 z m -0.896,12.168 c -0.663,-0.156 -1.326,-0.272 -2.028,-0.272 -1.794,0 -2.925,0.74 -2.925,1.755 0,1.209 1.014,2.027 2.574,2.027 2.027,0 2.729,-1.092 2.847,-2.886 0,-0.273 -0.196,-0.585 -0.468,-0.624 z m 13.767,-13.573 -1.989,3.042 c -0.352,0.507 -0.897,0.585 -1.443,0.234 -1.989,-1.404 -4.914,-3.12 -7.137,-4.213 -0.624,-0.272 -0.819,-0.857 -0.43,-1.442 l 1.794,-2.73 c 0.234,-0.429 0.741,-0.585 1.171,-0.351 2.34,1.053 5.771,2.886 7.8,4.173 0.468,0.274 0.585,0.82 0.234,1.287 z"
           style="fill:#2c2c46;fill-opacity:1"
           inkscape:connector-curvature="0" />
        <path
           id="path3653"
           d="m 346.303,6.76 v 3.511 c 0,0.468 -0.312,0.857 -0.78,0.936 -1.638,0.352 -3.51,0.702 -5.343,0.937 -0.43,0.039 -0.78,0.351 -0.858,0.74 -0.312,1.326 -0.624,2.691 -0.936,3.939 -1.248,4.836 -3.511,11.7 -5.5,16.303 -0.194,0.468 -0.701,0.663 -1.17,0.507 l -4.212,-1.403 c -0.702,-0.234 -0.897,-0.819 -0.585,-1.443 2.106,-3.939 4.603,-10.843 5.851,-15.522 l 0.468,-1.678 c 0.156,-0.546 -0.156,-0.857 -0.702,-0.857 h -0.937 c -1.442,0 -2.612,-0.039 -3.666,-0.117 -0.546,0 -0.896,-0.39 -0.936,-0.937 l -0.078,-3.51 c -0.039,-0.663 0.39,-1.053 1.053,-0.975 1.404,0.116 2.379,0.155 3.666,0.155 0.741,0 1.443,-0.039 2.146,-0.039 h 0.078 c 0.39,-0.038 0.78,-0.351 0.857,-0.779 0.039,-0.234 0.039,-0.507 0.078,-0.741 0.117,-1.053 0.156,-2.106 0.156,-2.964 0,-0.663 0.429,-1.093 1.092,-1.054 l 4.485,0.352 c 0.663,0.039 1.014,0.507 0.858,1.17 l -0.546,2.691 -0.078,0.312 c -0.039,0.195 0.039,0.312 0.233,0.273 1.365,-0.234 2.77,-0.469 4.096,-0.78 0.742,-0.158 1.21,0.233 1.21,0.973 z m -4.759,15.484 3.276,0.272 c 0.702,0.078 1.054,0.585 0.897,1.248 -0.156,0.702 -0.234,1.365 -0.234,1.833 0,1.482 0.976,2.457 4.212,2.457 2.106,0 4.291,-0.195 6.631,-0.585 0.741,-0.117 1.17,0.273 1.17,1.015 l -0.156,3.666 c -0.039,0.468 -0.39,0.857 -0.857,0.896 -1.95,0.234 -4.135,0.43 -6.825,0.43 -6.436,0 -9.634,-2.341 -9.634,-6.085 0,-1.481 0.234,-3.12 0.468,-4.407 0.116,-0.506 0.545,-0.779 1.052,-0.74 z m 1.6,-4.876 v -3.237 c 0,-0.507 0.351,-0.896 0.858,-0.936 1.949,-0.195 4.29,-0.312 6.396,-0.312 1.756,0 3.666,0.078 5.577,0.234 0.546,0.039 0.897,0.429 0.858,0.976 l -0.039,3.354 c -0.039,0.663 -0.468,1.054 -1.131,0.976 -1.561,-0.195 -3.433,-0.352 -5.266,-0.352 -2.262,0 -4.212,0.078 -6.162,0.273 -0.663,0.078 -1.091,-0.313 -1.091,-0.976 z"
           style="fill:#2c2c46;fill-opacity:1"
           inkscape:connector-curvature="0" />
        <path
           id="path3655"
           d="m 382.611,33.242 -2.184,-3.433 c -0.507,-0.779 -0.195,-1.364 0.702,-1.521 0.779,-0.156 1.403,-0.312 2.066,-0.468 4.681,-1.132 7.801,-4.407 7.801,-9.205 0,-4.368 -1.95,-7.566 -5.538,-8.814 -0.585,-0.233 -1.093,0.117 -1.171,0.741 -0.468,2.652 -1.092,5.538 -1.988,8.503 -2.185,7.332 -5.461,12.285 -9.79,12.285 -4.523,0 -8.034,-4.953 -8.034,-11.193 0,-8.697 7.527,-16.107 17.355,-16.107 9.322,0 15.25,6.435 15.25,14.781 0,7.527 -4.368,13.104 -13.494,14.859 -0.351,0.079 -0.779,-0.116 -0.975,-0.428 z m -4.329,-22.738 c 0.117,-0.546 -0.195,-0.818 -0.702,-0.624 -4.875,1.755 -7.293,6.318 -7.293,9.673 0,3.159 1.092,4.836 2.34,4.836 1.482,0 2.613,-2.223 3.9,-6.475 0.742,-2.223 1.327,-4.836 1.755,-7.41 z"
           style="fill:#2c2c46;fill-opacity:1"
           inkscape:connector-curvature="0" />
        <path
           id="path3657"
           d="m 404.451,17.524 h 31.162 c 0.585,0 0.975,0.39 0.975,0.976 v 4.914 c 0,0.585 -0.39,0.975 -0.975,0.975 h -3.354 c -0.585,0 -0.975,-0.39 -0.975,-0.975 v -0.897 c 0,-0.585 -0.391,-0.975 -0.976,-0.975 h -9.711 c -0.234,0 -0.468,0.116 -0.624,0.272 l -0.078,0.078 -0.156,0.156 -0.078,0.078 c -0.233,0.312 -0.117,0.507 0.312,0.507 h 6.084 l 0.195,-0.039 0.429,-0.078 c 0.195,-0.039 0.429,0 0.624,0.078 h 0.078 l 2.145,1.131 c 0.547,0.273 0.702,0.819 0.352,1.326 -4.018,6.201 -11.7,9.01 -20.554,10.374 -0.468,0.078 -0.897,-0.194 -1.053,-0.624 -0.312,-0.702 -0.702,-1.521 -1.132,-2.223 -0.507,-0.897 -0.233,-1.521 0.78,-1.638 1.561,-0.195 3.081,-0.43 4.524,-0.702 0.975,-0.234 1.092,-0.78 0.234,-1.287 -0.352,-0.234 -0.741,-0.43 -1.093,-0.585 -0.233,-0.117 -0.546,-0.117 -0.78,-0.039 -0.662,0.272 -1.286,0.546 -1.988,0.818 -0.469,0.156 -0.937,0 -1.209,-0.429 -0.352,-0.507 -0.78,-1.092 -1.248,-1.638 -0.78,-0.897 -0.663,-1.561 0.507,-1.95 1.872,-0.624 3.471,-1.326 4.797,-2.106 1.365,-0.779 1.092,-1.481 -0.468,-1.481 h -1.677 c -0.585,0 -0.976,0.39 -0.976,0.975 v 0.897 c 0,0.585 -0.39,0.975 -0.975,0.975 h -3.12 c -0.585,0 -0.976,-0.39 -0.976,-0.975 V 18.5 c 0.003,-0.586 0.393,-0.976 0.978,-0.976 z m 6.708,-10.569 c 0,-0.234 -0.195,-0.429 -0.429,-0.429 h -6.085 c -0.585,0 -0.975,-0.391 -0.975,-0.976 V 2.977 c 0,-0.585 0.39,-0.975 0.975,-0.975 h 5.655 c 0.507,0 0.858,-0.352 0.858,-0.897 0,-0.507 0.351,-0.857 0.896,-0.857 h 3.589 c 0.507,0 0.857,0.351 0.857,0.857 0,0.546 0.352,0.897 0.897,0.897 h 5.148 c 0.507,0 0.857,-0.352 0.857,-0.897 0,-0.507 0.352,-0.857 0.897,-0.857 h 3.627 c 0.507,0 0.858,0.351 0.858,0.857 0,0.546 0.351,0.897 0.896,0.897 h 5.733 c 0.585,0 0.976,0.39 0.976,0.975 v 2.574 c 0,0.585 -0.391,0.976 -0.976,0.976 h -6.162 c -0.273,0 -0.468,0.194 -0.468,0.429 0,0.273 -0.195,0.468 -0.43,0.468 h -4.484 c -0.273,0 -0.469,-0.194 -0.469,-0.468 0,-0.234 -0.194,-0.429 -0.429,-0.429 h -6.006 c -0.273,0 -0.469,0.194 -0.469,0.429 0,0.273 -0.194,0.468 -0.429,0.468 h -4.446 c -0.267,-0.001 -0.462,-0.195 -0.462,-0.469 z m -4.914,8.502 V 8.983 c 0,-0.585 0.39,-0.976 0.975,-0.976 h 25.741 c 0.585,0 0.975,0.391 0.975,0.976 v 6.474 c 0,0.585 -0.39,0.976 -0.975,0.976 H 407.22 c -0.585,0 -0.975,-0.391 -0.975,-0.976 z m 4.719,-3.51 v 0.507 c 0,0.352 0.234,0.585 0.585,0.585 h 1.794 c 0.352,0 0.586,-0.233 0.586,-0.585 v -0.507 c 0,-0.351 -0.234,-0.585 -0.586,-0.585 h -1.794 c -0.351,0 -0.585,0.235 -0.585,0.585 z m 9.751,14.197 h -2.926 c -1.092,0 -1.17,0.352 -0.233,0.937 0.429,0.272 0.857,0.546 1.248,0.857 0.155,0.117 0.39,0.156 0.585,0.039 0.585,-0.272 1.131,-0.546 1.638,-0.857 0.897,-0.547 0.741,-0.976 -0.312,-0.976 z m -2.341,-14.197 v 0.507 c 0,0.352 0.234,0.585 0.585,0.585 h 1.872 c 0.352,0 0.586,-0.233 0.586,-0.585 v -0.507 c 0,-0.351 -0.234,-0.585 -0.586,-0.585 h -1.872 c -0.351,0 -0.585,0.235 -0.585,0.585 z m 7.488,0 v 0.507 c 0,0.352 0.234,0.585 0.585,0.585 h 1.911 c 0.352,0 0.585,-0.233 0.585,-0.585 v -0.507 c 0,-0.351 -0.233,-0.585 -0.585,-0.585 h -1.911 c -0.35,0 -0.585,0.235 -0.585,0.585 z"
           style="fill:#2c2c46;fill-opacity:1"
           inkscape:connector-curvature="0" />
        <path
           id="path3659"
           d="m 463.186,26.378 h -3.237 c -0.624,0 -1.014,-0.429 -0.975,-1.053 0,-0.273 0.039,-0.547 0.039,-0.858 0.078,-1.053 -0.546,-1.404 -1.404,-0.78 -1.248,0.976 -1.833,1.911 -1.833,3.042 0,1.561 1.17,2.185 4.603,2.185 2.886,0 6.435,-0.312 9.477,-0.897 0.702,-0.117 1.209,0.273 1.17,1.015 l -0.116,3.666 c -0.039,0.468 -0.352,0.857 -0.858,0.896 -2.457,0.273 -6.552,0.546 -9.789,0.546 -6.046,0 -10.375,-1.56 -10.375,-6.435 0,-4.407 3.705,-7.371 7.488,-9.517 0.585,-0.312 0.702,-0.819 0.117,-1.053 -0.351,-0.156 -0.741,-0.195 -1.131,-0.195 -1.911,0 -4.173,1.248 -5.421,2.457 -0.937,0.937 -1.833,2.067 -2.809,3.354 -0.351,0.468 -0.896,0.546 -1.365,0.194 l -3.003,-2.262 c -0.585,-0.429 -0.624,-1.014 -0.078,-1.521 2.574,-2.34 4.603,-4.719 6.162,-7.215 0.508,-0.819 0.117,-1.404 -0.818,-1.443 -1.131,0 -2.457,-0.078 -3.627,-0.155 -0.508,-0.039 -0.858,-0.43 -0.858,-0.976 V 6.292 c 0,-0.702 0.468,-1.092 1.131,-1.014 1.716,0.194 3.861,0.312 5.46,0.312 h 0.741 c 0.429,0 0.78,-0.272 0.858,-0.702 0.195,-0.857 0.312,-1.638 0.39,-2.301 0.078,-0.624 0.468,-0.975 1.092,-0.937 l 3.744,0.312 c 0.663,0.039 1.015,0.507 0.858,1.092 v 0.078 c -0.039,0.312 -0.117,0.585 -0.195,0.897 -0.194,0.818 0.156,1.326 1.015,1.287 2.496,-0.195 4.992,-0.43 7.332,-0.78 0.702,-0.117 1.17,0.272 1.17,0.975 l -0.039,3.12 c 0,0.507 -0.351,0.897 -0.857,0.976 -3.12,0.39 -6.981,0.663 -10.414,0.779 -0.351,0.039 -0.702,0.234 -0.857,0.586 -0.117,0.233 -0.273,0.468 -0.391,0.74 v 0.078 c -0.429,0.702 -0.155,1.092 0.702,0.976 0.741,-0.078 1.6,-0.117 2.185,-0.117 1.794,0 3.354,0.624 4.368,1.833 0.351,0.429 0.818,0.585 1.326,0.351 1.131,-0.507 2.105,-0.896 3.158,-1.364 1.287,-0.547 2.535,-1.132 3.744,-1.717 0.586,-0.272 1.093,-0.039 1.326,0.508 l 1.365,3.119 c 0.234,0.625 0,1.171 -0.663,1.365 -1.287,0.43 -2.886,1.015 -3.938,1.443 -1.248,0.507 -2.809,1.092 -4.524,1.833 -0.352,0.156 -0.585,0.546 -0.585,0.937 l 0.117,4.406 c 0.035,0.625 -0.354,1.015 -0.978,1.015 z"
           style="fill:#2c2c46;fill-opacity:1"
           inkscape:connector-curvature="0" />
        <path
           id="path3661"
           d="m 492.63,31.214 -3.314,2.848 c -0.43,0.39 -0.976,0.351 -1.365,-0.117 -1.911,-2.185 -4.29,-4.642 -6.396,-6.592 -0.507,-0.429 -0.507,-1.014 0,-1.481 l 3.237,-2.73 c 0.39,-0.351 0.858,-0.351 1.248,-0.039 2.262,1.95 5.07,4.836 6.708,6.825 0.351,0.389 0.312,0.935 -0.118,1.286 z"
           style="fill:#2c2c46;fill-opacity:1"
           inkscape:connector-curvature="0" />
      </g>
      <g
         id="g3663"
         style="fill:#2c2c46;fill-opacity:1;enable-background:new">
        <path
           id="path3665"
           d="m 36.293,67.957 c 0.39,0.233 0.546,0.74 0.351,1.17 L 34.928,73.3 c -0.351,0.78 -0.936,0.897 -1.599,0.351 l -0.78,-0.662 c -0.585,-0.469 -1.17,-0.273 -1.482,0.351 -1.599,3.198 -4.134,5.812 -7.996,7.917 -0.312,0.195 -0.741,0.156 -1.053,-0.078 l -2.964,-2.418 c -0.741,-0.624 -0.663,-1.248 0.195,-1.716 3.939,-1.989 6.123,-4.563 7.332,-7.099 0.234,-0.468 0.039,-0.936 -0.429,-1.17 -1.872,-0.975 -3.9,-1.716 -6.006,-2.145 -0.429,-0.117 -0.858,0.117 -1.053,0.546 -1.248,2.808 -2.535,5.772 -3.705,7.645 -1.56,2.379 -3.471,3.588 -6.318,3.588 -3.51,0 -6.123,-2.34 -6.123,-6.475 0,-5.616 4.992,-10.023 12.129,-10.647 0.351,-0.039 0.663,-0.272 0.819,-0.585 l 1.521,-3.627 c 0.39,-0.897 0.039,-1.482 -0.936,-1.443 -1.287,0.039 -2.808,0.117 -3.939,0.195 l -2.067,0.195 C 9.811,56.101 9.382,55.75 9.343,55.086 L 9.187,51.615 c -0.039,-0.663 0.429,-1.092 1.092,-1.015 0.78,0.039 1.56,0.078 2.106,0.078 2.184,0 5.616,-0.117 7.371,-0.272 0.819,-0.039 1.677,-0.195 2.34,-0.43 0.351,-0.116 0.741,-0.039 1.014,0.156 l 2.223,1.755 c 0.507,0.391 0.546,0.976 0.117,1.443 -0.273,0.312 -0.507,0.624 -0.663,0.897 -0.78,1.364 -1.833,3.744 -2.886,6.279 -0.273,0.662 0.039,1.17 0.702,1.325 1.872,0.469 3.627,0.976 5.265,1.678 0.078,0 0.156,0 0.234,-0.039 l 0.117,-0.078 v -0.195 c 0.078,-1.131 0.117,-2.184 0.078,-3.12 -0.039,-0.741 0.39,-1.209 1.131,-1.092 l 3.666,0.39 c 0.546,0.078 0.897,0.469 0.858,1.015 -0.117,1.794 -0.312,3.51 -0.546,5.07 -0.039,0.39 0.156,0.779 0.507,1.014 0.858,0.507 1.638,1.014 2.301,1.482 h 0.079 z m -25.39,3.158 c 0.585,-0.896 1.287,-2.184 1.95,-3.627 0.312,-0.624 0.039,-0.975 -0.624,-0.74 -2.613,0.857 -4.056,2.651 -4.056,4.29 0,0.779 0.429,1.364 0.975,1.364 0.702,0 1.17,-0.389 1.755,-1.287 z"
           style="fill:#2c2c46;fill-opacity:1"
           inkscape:connector-curvature="0" />
        <path
           id="path3667"
           d="m 61.955,51.888 -0.585,0.819 c -1.599,2.262 -3.549,5.694 -5.148,8.58 -0.507,0.897 -0.195,1.287 0.858,1.131 0.585,-0.077 1.17,-0.116 1.755,-0.116 2.925,0 4.524,1.872 4.719,5.031 0.078,1.325 -0.039,4.329 0.156,5.732 0.156,1.171 1.014,1.639 2.028,1.639 2.379,0 4.017,-2.848 5.109,-7.021 0.273,-0.897 0.897,-1.131 1.599,-0.507 l 3.12,2.535 c 0.312,0.233 0.429,0.624 0.312,1.014 -1.95,6.201 -5.46,10.102 -11.115,10.102 -4.095,0 -6.357,-2.379 -6.552,-5.305 -0.156,-1.911 -0.156,-4.992 -0.273,-6.162 -0.117,-1.131 -0.702,-1.794 -1.794,-1.794 -2.262,0 -3.939,2.301 -5.187,5.344 -0.78,1.794 -1.677,4.992 -2.301,7.098 -0.156,0.585 -0.663,0.858 -1.248,0.663 L 43.04,79.19 c -0.546,-0.195 -0.78,-0.702 -0.585,-1.248 2.925,-7.605 9.867,-21.88 11.701,-25.234 0.429,-0.858 1.053,-1.95 1.716,-3.315 0.234,-0.546 0.741,-0.741 1.287,-0.546 l 4.446,1.833 c 0.544,0.233 0.662,0.701 0.35,1.208 z"
           style="fill:#2c2c46;fill-opacity:1"
           inkscape:connector-curvature="0" />
        <path
           id="path3669"
           d="m 100.563,53.799 0.078,3.081 c 0.039,0.469 -0.272,0.858 -0.702,0.976 -1.325,0.312 -3.042,0.663 -4.875,0.975 -0.351,0.039 -0.663,0.312 -0.78,0.624 -1.638,4.72 -4.329,10.258 -7.02,14.313 -0.273,0.43 -0.78,0.546 -1.209,0.312 l -3.55,-1.755 c -0.663,-0.312 -0.779,-0.937 -0.351,-1.482 2.457,-3.354 4.758,-7.527 6.24,-10.882 0.156,-0.312 0,-0.507 -0.352,-0.507 h -0.623 c -1.287,0 -2.535,0 -3.9,-0.078 -0.507,-0.039 -0.858,-0.39 -0.897,-0.896 l -0.233,-3.198 c -0.078,-0.741 0.39,-1.17 1.131,-1.092 1.404,0.194 2.925,0.272 3.861,0.272 0.74,0 1.442,-0.039 2.184,-0.078 0.39,0 0.741,-0.312 0.819,-0.702 0.312,-1.325 0.546,-2.729 0.624,-4.056 0.078,-0.585 0.468,-0.976 1.092,-0.897 l 3.939,0.352 c 0.702,0.078 1.014,0.546 0.857,1.209 -0.117,0.546 -0.272,1.131 -0.429,1.794 -0.234,0.937 0.195,1.404 1.131,1.209 0.585,-0.117 1.17,-0.272 1.716,-0.39 0.743,-0.196 1.21,0.155 1.249,0.896 z m 0.703,6.631 h 3.511 c 0.624,0 1.014,0.429 1.014,1.053 -0.039,1.287 0,2.652 0.039,4.095 0.039,0.702 0.078,1.794 0.156,3.004 0.039,0.351 0.272,0.701 0.624,0.857 2.613,1.092 4.758,2.574 6.435,4.018 0.352,0.312 0.43,0.818 0.156,1.209 l -1.872,3.081 c -0.39,0.624 -0.975,0.702 -1.481,0.234 -0.663,-0.586 -1.365,-1.21 -2.146,-1.873 -0.858,-0.662 -1.404,-0.351 -1.677,0.663 -0.663,2.613 -2.77,4.407 -7.216,4.407 -4.875,0 -8.658,-2.262 -8.658,-6.513 0,-3.666 2.925,-6.825 8.58,-6.825 0.312,0 0.663,0 0.976,0.039 0.546,0.039 0.896,-0.312 0.896,-0.897 -0.116,-1.872 -0.194,-3.9 -0.312,-5.538 0,-0.586 0.39,-1.014 0.975,-1.014 z m -0.897,12.168 c -0.663,-0.156 -1.326,-0.272 -2.028,-0.272 -1.794,0 -2.925,0.74 -2.925,1.755 0,1.209 1.014,2.027 2.574,2.027 2.027,0 2.729,-1.092 2.847,-2.886 0,-0.273 -0.195,-0.585 -0.468,-0.624 z m 13.768,-13.573 -1.989,3.042 c -0.352,0.507 -0.897,0.585 -1.443,0.234 -1.989,-1.404 -4.914,-3.12 -7.137,-4.213 -0.624,-0.272 -0.819,-0.857 -0.43,-1.442 l 1.794,-2.73 c 0.234,-0.429 0.741,-0.585 1.171,-0.351 2.34,1.053 5.771,2.886 7.8,4.173 0.467,0.274 0.584,0.82 0.234,1.287 z"
           style="fill:#2c2c46;fill-opacity:1"
           inkscape:connector-curvature="0" />
        <path
           id="path3671"
           d="m 121.936,52.98 c 1.131,-0.039 2.145,-0.078 2.729,-0.156 3.433,-0.273 8.971,-0.741 15.679,-1.326 3.237,-0.273 7.021,-0.468 9.673,-0.585 0.624,-0.039 1.014,0.351 1.014,0.975 l 0.039,3.705 c 0,0.585 -0.39,0.976 -0.975,0.976 -1.872,0.039 -4.33,0.117 -6.085,0.468 -3.938,0.858 -7.371,5.188 -7.371,9.517 0,5.031 4.407,7.215 10.141,7.8 0.78,0.039 1.131,0.546 0.896,1.287 l -1.442,4.251 c -0.156,0.469 -0.546,0.702 -0.976,0.663 -7.878,-0.818 -14.47,-5.226 -14.47,-12.831 0,-3.471 1.287,-6.436 2.73,-8.502 1.014,-1.404 0.741,-2.067 -1.053,-1.872 -2.964,0.351 -6.825,0.857 -9.945,1.481 -0.663,0.156 -1.131,-0.195 -1.209,-0.857 l -0.352,-3.9 c -0.038,-0.626 0.353,-1.054 0.977,-1.094 z m 24.454,7.332 c 0.662,1.014 1.442,2.301 1.988,3.393 0.273,0.547 0.078,1.054 -0.468,1.287 l -1.482,0.663 c -0.546,0.234 -1.053,0.039 -1.286,-0.468 -0.586,-1.248 -1.093,-2.184 -1.717,-3.198 -0.429,-0.624 -0.233,-1.209 0.43,-1.481 l 1.364,-0.547 c 0.469,-0.194 0.936,-0.039 1.171,0.351 z m 4.212,-1.793 c 0.663,1.014 1.481,2.223 2.105,3.275 0.312,0.547 0.117,1.093 -0.429,1.326 l -1.482,0.702 c -0.507,0.273 -1.014,0.078 -1.287,-0.429 -0.623,-1.209 -1.17,-2.106 -1.871,-3.12 -0.391,-0.585 -0.273,-1.17 0.39,-1.482 l 1.365,-0.624 c 0.467,-0.194 0.935,-0.039 1.209,0.352 z"
           style="fill:#2c2c46;fill-opacity:1"
           inkscape:connector-curvature="0" />
        <path
           id="path3673"
           d="m 187.105,77.044 c 0.936,0 1.248,-0.429 1.442,-2.847 0.078,-1.209 0.741,-1.482 1.756,-1.015 0.818,0.391 1.716,0.702 2.457,0.937 0.507,0.155 0.779,0.585 0.74,1.053 -0.623,5.499 -2.066,6.981 -5.889,6.981 h -4.29 c -4.914,0 -6.123,-1.639 -6.123,-6.514 v -4.056 c 0,-0.585 -0.391,-0.976 -0.976,-0.976 h -1.716 c -0.507,0 -0.897,0.352 -0.976,0.858 -0.779,5.266 -2.964,8.932 -11.427,10.998 -0.507,0.117 -0.976,-0.117 -1.17,-0.585 -0.43,-0.857 -0.976,-1.833 -1.6,-2.651 -0.585,-0.897 -0.39,-1.521 0.663,-1.756 5.422,-1.209 7.06,-3.042 7.684,-5.771 0.156,-0.663 -0.234,-1.093 -0.937,-1.093 h -2.145 c -0.585,0 -0.976,-0.39 -0.976,-0.975 V 49.275 c 0,-0.586 0.391,-0.976 0.976,-0.976 h 22.894 c 0.585,0 0.976,0.39 0.976,0.976 v 20.358 c 0,0.585 -0.391,0.975 -0.976,0.975 h -3.783 c -0.585,0 -0.975,0.391 -0.975,0.976 v 4.017 c 0,1.326 0.194,1.443 1.404,1.443 h 2.967 z M 168.813,53.565 v 0.272 c 0,0.352 0.234,0.585 0.585,0.585 h 12.987 c 0.352,0 0.585,-0.233 0.585,-0.585 v -0.272 c 0,-0.352 -0.233,-0.585 -0.585,-0.585 h -12.987 c -0.35,0 -0.585,0.234 -0.585,0.585 z m 0,5.733 v 0.273 c 0,0.351 0.234,0.585 0.585,0.585 h 12.987 c 0.352,0 0.585,-0.234 0.585,-0.585 v -0.273 c 0,-0.351 -0.233,-0.585 -0.585,-0.585 h -12.987 c -0.35,0 -0.585,0.234 -0.585,0.585 z m 0,5.772 v 0.273 c 0,0.351 0.234,0.585 0.585,0.585 h 12.987 c 0.352,0 0.585,-0.234 0.585,-0.585 V 65.07 c 0,-0.351 -0.233,-0.585 -0.585,-0.585 h -12.987 c -0.35,0 -0.585,0.235 -0.585,0.585 z"
           style="fill:#2c2c46;fill-opacity:1"
           inkscape:connector-curvature="0" />
        <path
           id="path3675"
           d="m 222.79,50.523 1.716,2.496 c 0.352,0.507 0.234,1.092 -0.272,1.403 l -1.95,1.209 c -1.755,1.17 -4.018,3.042 -5.929,4.563 -0.585,0.468 -0.507,0.663 0.273,0.585 0.429,-0.039 0.819,-0.039 1.287,-0.039 6.279,0 11.271,3.861 11.271,9.634 0,5.771 -4.681,10.764 -14.509,10.764 -4.836,0 -8.619,-2.418 -8.619,-6.435 0,-3.237 2.964,-6.24 7.099,-6.24 3.744,0 6.396,1.833 7.526,4.485 0.352,0.74 0.937,1.053 1.482,0.429 0.78,-0.897 1.17,-1.989 1.17,-3.159 0,-3.003 -2.886,-4.875 -6.903,-4.875 -5.031,0 -8.854,2.847 -12.168,6.747 -0.43,0.507 -1.015,0.546 -1.482,0.078 l -2.535,-2.535 c -0.468,-0.468 -0.429,-1.053 0.039,-1.482 2.418,-1.989 5.929,-5.109 7.84,-6.708 l 4.836,-4.173 c 1.209,-1.015 0.936,-1.717 -0.624,-1.639 -1.482,0.039 -3.042,0.156 -4.251,0.234 l -2.146,0.195 c -0.702,0.077 -1.131,-0.312 -1.17,-0.976 l -0.117,-3.471 c -0.039,-0.702 0.429,-1.092 1.092,-1.054 0.858,0.078 1.756,0.117 2.613,0.117 1.95,0 8.542,-0.117 10.726,-0.312 1.131,-0.078 1.989,-0.156 2.574,-0.273 0.429,-0.075 0.858,0.081 1.131,0.432 z m -7.371,25.351 c 0.39,-0.039 0.585,-0.273 0.507,-0.663 -0.351,-1.561 -1.365,-2.535 -2.73,-2.535 -1.17,0 -1.872,0.702 -1.872,1.443 0,1.17 0.976,1.794 2.809,1.794 0.428,0 0.857,0 1.286,-0.039 z"
           style="fill:#2c2c46;fill-opacity:1"
           inkscape:connector-curvature="0" />
        <path
           id="path3677"
           d="m 250.207,69.984 0.429,2.77 c 0.078,0.468 -0.195,0.936 -0.702,1.053 -4.017,1.209 -8.347,2.457 -11.896,3.511 -0.585,0.155 -1.092,-0.117 -1.248,-0.702 l -0.78,-3.12 c -0.155,-0.585 0.117,-1.054 0.702,-1.209 l 3.394,-0.78 c 0.429,-0.117 0.741,-0.507 0.741,-0.976 v -4.797 c 0,-0.585 -0.391,-0.975 -0.976,-0.975 h -1.911 c -0.585,0 -0.975,-0.391 -0.975,-0.976 v -2.964 c 0,-0.585 0.39,-0.975 0.975,-0.975 h 1.911 c 0.585,0 0.976,-0.391 0.976,-0.976 v -3.744 c 0,-0.585 -0.391,-0.975 -0.976,-0.975 h -2.184 c -0.585,0 -0.976,-0.391 -0.976,-0.976 V 50.17 c 0,-0.585 0.391,-0.975 0.976,-0.975 h 11.232 c 0.585,0 0.975,0.39 0.975,0.975 v 3.003 c 0,0.585 -0.39,0.976 -0.975,0.976 h -1.911 c -0.585,0 -0.976,0.39 -0.976,0.975 v 3.744 c 0,0.585 0.391,0.976 0.976,0.976 h 1.521 c 0.585,0 0.976,0.39 0.976,0.975 v 2.964 c 0,0.585 -0.391,0.976 -0.976,0.976 h -1.521 c -0.585,0 -0.976,0.39 -0.976,0.975 v 2.964 c 0,0.741 0.469,1.132 1.209,0.937 l 1.756,-0.468 c 0.625,-0.157 1.132,0.154 1.21,0.817 z m 16.614,7.723 c 0.39,0 0.585,-0.39 0.663,-2.262 0.078,-1.209 0.702,-1.521 1.794,-1.015 0.624,0.273 1.326,0.546 1.989,0.741 0.468,0.156 0.741,0.546 0.702,1.053 -0.507,4.72 -1.755,6.046 -4.563,6.046 h -2.379 c -3.861,0 -4.681,-1.482 -4.681,-5.851 v -6.006 c 0,-0.43 -0.312,-0.741 -0.74,-0.741 -0.43,0 -0.78,0.312 -0.819,0.741 -0.585,5.538 -2.263,9.594 -9.595,12.012 -0.507,0.156 -0.975,-0.078 -1.209,-0.546 -0.39,-0.741 -0.896,-1.56 -1.443,-2.301 -0.623,-0.819 -0.429,-1.482 0.586,-1.794 4.797,-1.521 5.889,-3.822 6.356,-7.021 0.078,-0.663 -0.312,-1.092 -0.975,-1.092 h -0.312 c -0.585,0 -0.975,-0.391 -0.975,-0.976 V 49.509 c 0,-0.585 0.39,-0.975 0.975,-0.975 h 16.654 c 0.585,0 0.975,0.39 0.975,0.975 v 19.188 c 0,0.585 -0.39,0.976 -0.975,0.976 h -2.379 c -0.585,0 -0.976,0.39 -0.976,0.975 v 5.733 c 0,1.209 0.078,1.326 0.546,1.326 h 0.781 z M 256.213,53.448 v 0.312 c 0,0.352 0.234,0.585 0.585,0.585 h 7.215 c 0.352,0 0.586,-0.233 0.586,-0.585 v -0.312 c 0,-0.352 -0.234,-0.585 -0.586,-0.585 h -7.215 c -0.351,0 -0.585,0.234 -0.585,0.585 z m 0,5.499 v 0.312 c 0,0.351 0.234,0.585 0.585,0.585 h 7.215 c 0.352,0 0.586,-0.234 0.586,-0.585 v -0.312 c 0,-0.351 -0.234,-0.585 -0.586,-0.585 h -7.215 c -0.351,0 -0.585,0.235 -0.585,0.585 z m 0,5.499 v 0.273 c 0,0.351 0.234,0.585 0.585,0.585 h 7.215 c 0.352,0 0.586,-0.234 0.586,-0.585 v -0.273 c 0,-0.351 -0.234,-0.585 -0.586,-0.585 h -7.215 c -0.351,0 -0.585,0.235 -0.585,0.585 z"
           style="fill:#2c2c46;fill-opacity:1"
           inkscape:connector-curvature="0" />
        <path
           id="path3679"
           d="m 308.278,73.611 h -7.839 c -1.521,0 -1.833,0.702 -0.546,1.482 2.066,1.209 4.641,2.067 7.878,2.496 1.209,0.195 1.443,0.819 0.741,1.794 -0.546,0.819 -1.131,1.716 -1.561,2.535 -0.195,0.352 -0.585,0.585 -1.014,0.507 -5.851,-0.975 -9.673,-2.964 -12.441,-6.396 -0.507,-0.624 -1.131,-0.624 -1.678,-0.039 -2.34,2.535 -6.084,4.719 -11.895,6.24 -0.469,0.116 -0.897,-0.078 -1.132,-0.43 -0.429,-0.702 -1.092,-1.56 -1.716,-2.34 -0.702,-0.858 -0.507,-1.481 0.585,-1.755 3.081,-0.741 5.46,-1.638 7.216,-2.652 1.325,-0.741 1.053,-1.443 -0.508,-1.443 h -6.669 c -0.585,0 -0.975,-0.39 -0.975,-0.975 v -2.691 c 0,-0.585 0.39,-0.975 0.975,-0.975 h 11.193 c 0.429,0 0.819,-0.352 0.897,-0.78 0.078,-0.468 -0.273,-0.857 -0.741,-0.857 h -7.216 c -0.585,0 -0.975,-0.391 -0.975,-0.976 v -2.379 c 0,-0.585 0.39,-0.975 0.975,-0.975 h 7.294 c 0.468,0 0.78,-0.312 0.78,-0.78 0,-0.468 -0.312,-0.78 -0.78,-0.78 h -7.879 c -0.585,0 -0.975,-0.39 -0.975,-0.975 v -0.819 c 0,-0.585 -0.39,-0.976 -0.976,-0.976 h -1.442 c -0.585,0 -0.976,-0.39 -0.976,-0.975 v -6.436 c 0,-0.585 0.391,-0.975 0.976,-0.975 h 11.232 c 0.585,0 0.975,-0.391 0.975,-0.976 V 48.3 c 0,-0.585 0.391,-0.975 0.976,-0.975 h 3.588 c 0.585,0 0.975,0.39 0.975,0.975 v 1.014 c 0,0.585 0.391,0.976 0.976,0.976 h 11.311 c 0.585,0 0.975,0.39 0.975,0.975 v 6.436 c 0,0.585 -0.39,0.975 -0.975,0.975 h -1.093 c -0.585,0 -0.975,0.391 -0.975,0.976 v 0.819 c 0,0.585 -0.39,0.975 -0.975,0.975 h -8.697 c -0.469,0 -0.78,0.312 -0.78,0.78 0,0.468 0.312,0.78 0.78,0.78 h 7.8 c 0.585,0 0.975,0.39 0.975,0.975 v 2.379 c 0,0.585 -0.39,0.976 -0.975,0.976 h -7.8 c -0.508,0 -0.819,0.312 -0.858,0.818 -0.078,0.507 0.195,0.819 0.702,0.819 h 12.285 c 0.585,0 0.975,0.39 0.975,0.975 v 2.691 c 0.002,0.583 -0.388,0.972 -0.973,0.972 z M 282.771,57.114 h 6.552 c 0.352,0 0.586,-0.234 0.586,-0.585 v -0.391 c 0,-0.351 0.233,-0.585 0.585,-0.585 h 4.29 c 0.351,0 0.585,0.234 0.585,0.585 v 0.391 c 0,0.351 0.233,0.585 0.585,0.585 h 6.747 c 0.351,0 0.585,-0.234 0.585,-0.585 v -1.014 c 0,-0.352 -0.234,-0.586 -0.585,-0.586 h -19.93 c -0.351,0 -0.585,0.234 -0.585,0.586 v 1.014 c 0.001,0.351 0.235,0.585 0.585,0.585 z"
           style="fill:#2c2c46;fill-opacity:1"
           inkscape:connector-curvature="0" />
        <path
           id="path3681"
           d="m 319.743,49.898 3.861,0.352 c 0.78,0.078 1.092,0.624 0.897,1.365 -0.273,0.936 -0.508,2.027 -0.624,2.457 -0.43,1.911 -1.756,9.672 -1.756,13.104 v 0.429 c 0,0.273 0.117,0.273 0.234,0.039 0.195,-0.468 0.429,-0.896 0.663,-1.326 0.351,-0.663 0.936,-0.818 1.521,-0.351 l 1.21,0.936 c 0.312,0.273 0.468,0.702 0.312,1.093 -1.053,3.158 -2.067,6.825 -2.457,8.774 -0.117,0.508 -0.234,1.404 -0.234,1.756 v 0.818 c 0,0.507 -0.272,0.858 -0.779,0.858 l -3.511,0.273 c -0.468,0 -0.857,-0.273 -0.975,-0.702 -0.663,-2.613 -1.287,-6.864 -1.287,-11.35 0,-5.616 1.092,-11.739 1.443,-14.431 0.116,-0.858 0.312,-2.028 0.39,-3.159 0.078,-0.583 0.507,-0.973 1.092,-0.935 z m 9.634,18.371 3.081,0.273 c 0.663,0.077 1.014,0.546 0.896,1.209 -0.116,0.624 -0.155,1.209 -0.155,1.833 0,1.638 1.521,2.223 4.523,2.223 2.926,0 5.305,-0.233 8.112,-0.741 0.702,-0.155 1.17,0.234 1.17,0.937 l 0.078,4.017 c 0,0.508 -0.312,0.897 -0.779,0.976 -2.263,0.351 -4.992,0.546 -8.854,0.546 -6.436,0 -9.634,-2.418 -9.634,-6.279 0,-1.404 0.195,-2.769 0.507,-4.251 0.118,-0.509 0.548,-0.783 1.055,-0.743 z m 1.52,-15.562 c 4.329,0.39 10.102,0.273 13.963,-0.039 0.663,-0.078 1.092,0.312 1.092,0.975 v 3.744 c 0,0.547 -0.351,0.937 -0.896,0.976 -4.407,0.272 -9.868,0.272 -14.313,0 -0.547,-0.039 -0.897,-0.429 -0.897,-0.976 l -0.039,-3.705 c -0.001,-0.662 0.427,-1.053 1.09,-0.975 z"
           style="fill:#2c2c46;fill-opacity:1"
           inkscape:connector-curvature="0" />
        <path
           id="path3683"
           d="m 365.686,75.835 c 0,3.432 -2.73,6.201 -6.201,6.201 -3.394,0 -6.162,-2.77 -6.162,-6.201 0,-3.394 2.769,-6.201 6.162,-6.201 3.47,0 6.201,2.807 6.201,6.201 z m -3.121,0 c 0,-1.716 -1.365,-3.081 -3.081,-3.081 -1.638,0 -3.042,1.365 -3.042,3.081 0,1.716 1.404,3.081 3.042,3.081 1.716,0 3.081,-1.365 3.081,-3.081 z"
           style="fill:#2c2c46;fill-opacity:1"
           inkscape:connector-curvature="0" />
      </g>
    </g>
  </g>
</svg>
