<?xml version="1.0" encoding="UTF-8" standalone="no"?>
<!-- Generator: Adobe Illustrator 27.5.0, SVG Export Plug-In . SVG Version: 6.00 Build 0)  -->

<svg
   xmlns:dc="http://purl.org/dc/elements/1.1/"
   xmlns:cc="http://creativecommons.org/ns#"
   xmlns:rdf="http://www.w3.org/1999/02/22-rdf-syntax-ns#"
   xmlns:svg="http://www.w3.org/2000/svg"
   xmlns="http://www.w3.org/2000/svg"
   xmlns:sodipodi="http://sodipodi.sourceforge.net/DTD/sodipodi-0.dtd"
   xmlns:inkscape="http://www.inkscape.org/namespaces/inkscape"
   version="1.1"
   id="レイヤー_1"
   x="0px"
   y="0px"
   viewBox="0 0 131.46039 74.999113"
   xml:space="preserve"
   inkscape:version="0.48.2 r9819"
   width="100%"
   height="100%"
   sodipodi:docname="header_logo.svg"><metadata
   id="metadata27"><rdf:RDF><cc:Work
       rdf:about=""><dc:format>image/svg+xml</dc:format><dc:type
         rdf:resource="http://purl.org/dc/dcmitype/StillImage" /></cc:Work></rdf:RDF></metadata><defs
   id="defs25" /><sodipodi:namedview
   pagecolor="#ffffff"
   bordercolor="#666666"
   borderopacity="1"
   objecttolerance="10"
   gridtolerance="10"
   guidetolerance="10"
   inkscape:pageopacity="0"
   inkscape:pageshadow="2"
   inkscape:window-width="651"
   inkscape:window-height="480"
   id="namedview23"
   showgrid="false"
   fit-margin-top="0"
   fit-margin-left="0"
   fit-margin-right="0"
   fit-margin-bottom="0"
   inkscape:zoom="1.5773082"
   inkscape:cx="43.238857"
   inkscape:cy="21.375428"
   inkscape:window-x="0"
   inkscape:window-y="0"
   inkscape:window-maximized="0"
   inkscape:current-layer="レイヤー_1" />
<g
   id="text3138-9"
   transform="matrix(3.2664215,0,0,3.2664215,-5217.8732,229.43345)">
	<path
   id="path3143-2-7"
   style="fill:#2c2c46"
   d="m 1597.429,-52.456 4.358,-2.481 v -4.718 h 5.505 v -2.976 h -5.505 v -3.404 h 6.585 v -4.204 h -10.944 v 17.783 z"
   inkscape:connector-curvature="0" />
	<path
   id="path3145-0"
   style="fill:#2c2c46"
   d="m 1611.491,-52.456 4.42,-2.606 v -4.594 h 5.443 v -2.976 h -5.443 v -3.579 h 6.524 v -4.029 h -10.944 l 0,17.784 z"
   inkscape:connector-curvature="0" />
	<path
   id="path3147-3"
   style="fill:#2c2c46"
   d="m 1628.585,-52.829 4.607,-2.109 0.062,-11.334 h 4.42 v -3.658 h -13.584 v 3.658 h 4.496 l -10e-4,13.443 z"
   inkscape:connector-curvature="0" />
</g>
<g
   id="text3149-5"
   transform="translate(0.0034361,-8.8415085e-4)">
	<path
   id="path9253"
   style="fill:#2c2c46"
   d="m 6.827,64.45 v 1.428 H 1.819 v 2.791 h 3.788 v 1.428 H 1.819 v 4.714 H 0 V 64.45 h 6.827 z"
   inkscape:connector-curvature="0" />
	<path
   id="path9255"
   style="fill:#2c2c46"
   d="m 12.167,67.319 -0.111,1.578 c -0.935,0 -1.628,0.619 -2.08,1.858 v 4.056 H 8.32 v -7.329 h 1.578 v 1.8 c 0.473,-1.309 1.23,-1.963 2.269,-1.963 z"
   inkscape:connector-curvature="0" />
	<path
   id="path9257"
   style="fill:#2c2c46"
   d="m 13.347,69.327 c 0.378,-1.347 1.389,-2.021 3.032,-2.021 1.895,0 2.843,0.811 2.843,2.432 v 2.908 c 0,0.709 0.039,1.43 0.117,2.165 h -1.545 c -0.048,-0.274 -0.089,-0.593 -0.124,-0.958 -0.526,0.756 -1.295,1.135 -2.308,1.135 -0.726,0 -1.295,-0.222 -1.708,-0.665 -0.365,-0.391 -0.548,-0.895 -0.548,-1.513 0,-1.304 0.798,-2.11 2.393,-2.419 0.591,-0.113 1.289,-0.183 2.093,-0.209 v -0.417 c 0,-0.487 -0.115,-0.832 -0.346,-1.037 -0.2,-0.174 -0.509,-0.261 -0.926,-0.261 -0.383,0 -0.7,0.124 -0.952,0.372 -0.23,0.226 -0.38,0.53 -0.45,0.913 l -1.571,-0.425 z m 4.244,1.891 c -0.561,0.013 -1.121,0.085 -1.682,0.215 -0.8,0.191 -1.2,0.606 -1.2,1.245 0,0.739 0.391,1.108 1.174,1.108 0.713,0 1.282,-0.402 1.708,-1.206 v -1.362 z"
   inkscape:connector-curvature="0" />
	<path
   id="path9259"
   style="fill:#2c2c46"
   d="m 26.622,69.191 -1.591,0.456 c -0.183,-0.787 -0.617,-1.18 -1.304,-1.18 -0.374,0 -0.667,0.087 -0.88,0.261 -0.178,0.139 -0.267,0.315 -0.267,0.528 0,0.309 0.098,0.539 0.293,0.691 0.183,0.139 0.519,0.274 1.011,0.404 l 0.613,0.163 c 0.887,0.235 1.497,0.537 1.832,0.906 0.296,0.326 0.443,0.767 0.443,1.324 0,0.73 -0.28,1.295 -0.841,1.695 C 25.413,74.813 24.705,75 23.805,75 22.21,75 21.19,74.389 20.747,73.168 l 1.565,-0.548 c 0.235,0.822 0.745,1.232 1.532,1.232 0.891,0 1.337,-0.315 1.337,-0.945 0,-0.313 -0.104,-0.541 -0.313,-0.685 -0.178,-0.117 -0.546,-0.256 -1.102,-0.417 l -0.613,-0.17 c -0.848,-0.226 -1.428,-0.522 -1.741,-0.887 -0.274,-0.322 -0.411,-0.769 -0.411,-1.343 0,-0.656 0.267,-1.176 0.802,-1.558 0.491,-0.352 1.141,-0.528 1.95,-0.528 1.491,0 2.447,0.624 2.869,1.872 z"
   inkscape:connector-curvature="0" />
	<path
   id="path9261"
   style="fill:#2c2c46"
   d="m 30.136,64.261 v 4.46 c 0.656,-0.926 1.441,-1.389 2.354,-1.389 0.665,0 1.189,0.215 1.571,0.646 0.348,0.391 0.522,0.906 0.522,1.545 v 5.288 h -1.721 v -4.805 c 0,-0.822 -0.339,-1.232 -1.017,-1.232 -0.313,0 -0.635,0.13 -0.965,0.391 -0.283,0.222 -0.53,0.511 -0.743,0.867 v 4.779 h -1.682 v -10.55 l 1.681,0 z"
   inkscape:connector-curvature="0" />
	<path
   id="path9263"
   style="fill:#2c2c46"
   d="m 47.513,64.45 v 1.428 h -5.008 v 2.791 h 3.788 v 1.428 h -3.788 v 4.714 H 40.686 V 64.45 h 6.827 z"
   inkscape:connector-curvature="0" />
	<path
   id="path9265"
   style="fill:#2c2c46"
   d="m 52.853,67.319 -0.111,1.578 c -0.935,0 -1.628,0.619 -2.08,1.858 v 4.056 h -1.656 v -7.329 h 1.578 v 1.8 c 0.473,-1.309 1.23,-1.963 2.269,-1.963 z"
   inkscape:connector-curvature="0" />
	<path
   id="path9267"
   style="fill:#2c2c46"
   d="m 57.13,67.319 c 1.069,0 1.906,0.385 2.51,1.154 0.535,0.682 0.802,1.571 0.802,2.667 0,1.265 -0.343,2.249 -1.03,2.954 C 58.821,74.698 58.056,75 57.117,75 56.039,75 55.2,74.615 54.6,73.846 c -0.53,-0.678 -0.795,-1.567 -0.795,-2.667 0,-1.261 0.346,-2.245 1.037,-2.954 0.595,-0.604 1.358,-0.906 2.288,-0.906 l 0,0 z m 0,1.213 c -1.069,0 -1.604,0.874 -1.604,2.621 0,1.756 0.53,2.634 1.591,2.634 1.069,0 1.604,-0.878 1.604,-2.634 0,-1.747 -0.531,-2.621 -1.591,-2.621 z"
   inkscape:connector-curvature="0" />
	<path
   id="path9269"
   style="fill:#2c2c46"
   d="m 63.807,67.482 v 1.284 c 0.322,-0.478 0.704,-0.845 1.148,-1.102 0.404,-0.23 0.824,-0.346 1.258,-0.346 0.665,0 1.189,0.217 1.571,0.652 0.348,0.391 0.522,0.908 0.522,1.552 v 5.288 h -1.721 v -4.818 c 0,-0.822 -0.339,-1.232 -1.017,-1.232 -0.313,0 -0.635,0.126 -0.965,0.378 -0.283,0.222 -0.53,0.511 -0.743,0.867 v 4.805 h -1.682 v -7.329 h 1.629 z"
   inkscape:connector-curvature="0" />
	<path
   id="path9271"
   style="fill:#2c2c46"
   d="m 72.446,65.089 v 2.393 h 1.643 v 1.226 h -1.643 v 4.023 c 0,0.704 0.302,1.056 0.906,1.056 0.326,0 0.611,-0.028 0.854,-0.085 l -0.065,1.2 c -0.369,0.057 -0.806,0.085 -1.311,0.085 -0.743,0 -1.278,-0.178 -1.604,-0.535 -0.291,-0.317 -0.437,-0.789 -0.437,-1.415 v -4.329 h -1.095 v -1.226 h 1.095 v -2.015 l 1.657,-0.378 z"
   inkscape:connector-curvature="0" />
	<path
   id="path9273"
   style="fill:#2c2c46"
   d="m 86.627,64.45 v 1.454 h -3.084 v 8.907 H 81.724 V 65.904 H 78.666 V 64.45 h 7.961 z"
   inkscape:connector-curvature="0" />
	<path
   id="path9275"
   style="fill:#2c2c46"
   d="m 89.796,67.482 v 7.329 h -1.682 v -7.329 h 1.682 z m 0.072,-3.032 v 1.721 H 88.049 V 64.45 h 1.819 z"
   inkscape:connector-curvature="0" />
	<path
   id="path9277"
   style="fill:#2c2c46"
   d="m 93.565,67.482 v 1.284 c 0.626,-0.965 1.395,-1.447 2.308,-1.447 0.509,0 0.928,0.148 1.258,0.443 0.274,0.252 0.456,0.582 0.548,0.991 0.63,-0.956 1.404,-1.434 2.321,-1.434 0.648,0 1.152,0.217 1.513,0.652 0.326,0.387 0.489,0.904 0.489,1.552 v 5.288 h -1.682 v -4.818 c 0,-0.822 -0.339,-1.232 -1.017,-1.232 -0.304,0 -0.606,0.13 -0.906,0.391 -0.256,0.226 -0.465,0.511 -0.626,0.854 v 4.805 h -1.656 v -4.818 c 0,-0.822 -0.302,-1.232 -0.906,-1.232 -0.309,0 -0.617,0.128 -0.926,0.385 -0.27,0.226 -0.491,0.513 -0.665,0.861 v 4.805 h -1.656 v -7.329 h 1.603 z"
   inkscape:connector-curvature="0" />
	<path
   id="path9279"
   style="fill:#2c2c46"
   d="m 110.295,71.512 h -4.955 c 0.009,0.765 0.187,1.352 0.535,1.76 0.317,0.369 0.754,0.554 1.311,0.554 0.787,0 1.302,-0.465 1.545,-1.395 l 1.526,0.443 c -0.461,1.417 -1.491,2.126 -3.091,2.126 -1.169,0 -2.058,-0.378 -2.667,-1.135 -0.535,-0.661 -0.802,-1.552 -0.802,-2.673 0,-1.269 0.348,-2.256 1.043,-2.96 0.596,-0.609 1.356,-0.913 2.282,-0.913 1.035,0 1.852,0.376 2.452,1.128 0.548,0.682 0.822,1.589 0.822,2.719 l -0.001,0.346 z m -1.643,-1.109 c -0.083,-1.282 -0.617,-1.923 -1.604,-1.923 -0.535,0 -0.95,0.196 -1.245,0.587 -0.252,0.335 -0.398,0.78 -0.437,1.337 l 3.286,-10e-4 z"
   inkscape:connector-curvature="0" />
	<path
   id="path9281"
   style="fill:#2c2c46"
   d="m 117.279,69.191 -1.591,0.456 c -0.183,-0.787 -0.617,-1.18 -1.304,-1.18 -0.374,0 -0.667,0.087 -0.88,0.261 -0.178,0.139 -0.267,0.315 -0.267,0.528 0,0.309 0.098,0.539 0.293,0.691 0.183,0.139 0.519,0.274 1.011,0.404 l 0.613,0.163 c 0.887,0.235 1.497,0.537 1.832,0.906 0.296,0.326 0.443,0.767 0.443,1.324 0,0.73 -0.28,1.295 -0.841,1.695 -0.518,0.374 -1.226,0.561 -2.126,0.561 -1.595,0 -2.615,-0.611 -3.058,-1.832 l 1.565,-0.548 c 0.235,0.822 0.745,1.232 1.532,1.232 0.891,0 1.337,-0.315 1.337,-0.945 0,-0.313 -0.104,-0.541 -0.313,-0.685 -0.178,-0.117 -0.546,-0.256 -1.102,-0.417 l -0.613,-0.17 c -0.848,-0.226 -1.428,-0.522 -1.741,-0.887 -0.274,-0.322 -0.411,-0.769 -0.411,-1.343 0,-0.656 0.267,-1.176 0.802,-1.558 0.491,-0.352 1.141,-0.528 1.95,-0.528 1.491,0 2.447,0.624 2.869,1.872 l 0,0 z"
   inkscape:connector-curvature="0" />
</g>
</svg>