<?xml version="1.0" encoding="UTF-8"?>
<svg id="_レイヤー_1" data-name="レイヤー 1" xmlns="http://www.w3.org/2000/svg" viewBox="0 0 100 100">
  <defs>
    <style>
      .cls-1 {
        fill: #2c2c46;
      }
    </style>
  </defs>
  <g id="text3138-9">
    <path id="path3143-2-7" class="cls-1" d="m.0024,65.6628l10.8285-6.1646v-11.7229h13.6784v-7.3945h-13.6784v-8.458h16.3617v-10.4457H0v44.1857h.0024Z"/>
    <path id="path3145-0" class="cls-1" d="m34.9425,65.6628l10.9825-6.4752v-11.4148h13.5243v-7.3945h-13.5243v-8.8928h16.2104v-10.0109h-27.1926v44.1881h-.0003Z"/>
    <path id="path3147-3" class="cls-1" d="m77.4162,64.736l11.4472-5.2403.1541-28.1617h10.9825v-9.0891h-33.7523v9.0891h11.1712l-.0024,33.402h-.0003Z"/>
  </g>
  <g id="text3149-5">
    <path id="path9253" class="cls-1" d="m5.1957,70.5001v1.0863H1.3862v2.1231h2.8815v1.0863H1.3862v3.5859H.0025v-7.8814h5.1932v-.0002Z"/>
    <path id="path9255" class="cls-1" d="m9.2577,72.6825l-.0844,1.2004c-.7112,0-1.2384.4709-1.5822,1.4134v3.0853h-1.2597v-5.5751h1.2004v1.3692c.3598-.9957.9356-1.4932,1.726-1.4932h-.0001Z"/>
    <path id="path9257" class="cls-1" d="m10.1554,74.2099c.2875-1.0246,1.0566-1.5373,2.3064-1.5373,1.4415,0,2.1626.6169,2.1626,1.85v2.2121c0,.5393.0297,1.0878.089,1.6469h-1.1753c-.0365-.2084-.0677-.4511-.0943-.7287-.4001.5751-.9851.8634-1.7557.8634-.5523,0-.9851-.1689-1.2992-.5059-.2776-.2974-.4169-.6808-.4169-1.1509,0-.9919.607-1.605,1.8203-1.8401.4496-.086.9805-.1392,1.5921-.159v-.3172c0-.3705-.0875-.6329-.2632-.7888-.1521-.1324-.3872-.1985-.7044-.1985-.2913,0-.5325.0943-.7242.283-.175.1719-.2891.4032-.3423.6945l-1.195-.3233h0v-.0002Zm3.2283,1.4385c-.4267.0099-.8527.0647-1.2795.1635-.6085.1453-.9128.461-.9128.9471,0,.5621.2974.8428.893.8428.5424,0,.9752-.3058,1.2992-.9174v-1.0361h.0001Z"/>
    <path id="path9259" class="cls-1" d="m20.2534,74.1065l-1.2102.3469c-.1392-.5987-.4693-.8976-.9919-.8976-.2845,0-.5074.0662-.6694.1985-.1354.1057-.2031.2396-.2031.4016,0,.235.0745.41.2229.5256.1392.1057.3948.2084.7691.3073l.4663.124c.6747.1788,1.1387.4085,1.3936.6892.2252.248.337.5834.337,1.0071,0,.5553-.213.9851-.6397,1.2894-.394.2845-.9326.4267-1.6172.4267-1.2133,0-1.9892-.4648-2.3262-1.3936l1.1905-.4169c.1788.6253.5667.9372,1.1654.9372.6778,0,1.017-.2396,1.017-.7188,0-.2381-.0791-.4115-.2381-.5211-.1354-.089-.4153-.1947-.8383-.3172l-.4663-.1293c-.6451-.1719-1.0863-.3971-1.3243-.6747-.2084-.2449-.3126-.585-.3126-1.0216,0-.499.2031-.8946.6101-1.1851.3735-.2678.8679-.4016,1.4833-.4016,1.1342,0,1.8614.4747,2.1824,1.424h-.0003Z"/>
    <path id="path9261" class="cls-1" d="m22.9265,70.3563v3.3926c.499-.7044,1.0961-1.0566,1.7906-1.0566.5059,0,.9045.1635,1.195.4914.2647.2974.3971.6892.3971,1.1753v4.0225h-1.3091v-3.6551c0-.6253-.2579-.9372-.7736-.9372-.2381,0-.483.0989-.7341.2974-.2153.1689-.4032.3887-.5652.6595v3.6353h-1.2795v-8.0252h1.2788Z"/>
    <path id="path9263" class="cls-1" d="m36.1449,70.5001v1.0863h-3.8095v2.1231h2.8815v1.0863h-2.8815v3.5859h-1.3837v-7.8814h5.1932v-.0002Z"/>
    <path id="path9265" class="cls-1" d="m40.2069,72.6825l-.0844,1.2004c-.7112,0-1.2384.4709-1.5822,1.4134v3.0853h-1.2597v-5.5751h1.2004v1.3692c.3598-.9957.9356-1.4932,1.726-1.4932h-.0001Z"/>
    <path id="path9267" class="cls-1" d="m43.4604,72.6825c.8132,0,1.4499.2929,1.9093.8778.407.5188.6101,1.195.6101,2.0287,0,.9623-.2609,1.7108-.7835,2.2471-.4496.4595-1.0315.6892-1.7458.6892-.82,0-1.4582-.2929-1.9146-.8778-.4032-.5157-.6047-1.192-.6047-2.0287,0-.9592.2632-1.7077.7888-2.2471.4526-.4595,1.033-.6892,1.7404-.6892h0Zm0,.9227c-.8132,0-1.2201.6648-1.2201,1.9938,0,1.3358.4032,2.0036,1.2102,2.0036.8132,0,1.2201-.6679,1.2201-2.0036,0-1.3289-.4039-1.9938-1.2102-1.9938Z"/>
    <path id="path9269" class="cls-1" d="m48.5394,72.8065v.9767c.2449-.3636.5355-.6428.8733-.8383.3073-.175.6268-.2632.9569-.2632.5059,0,.9045.1651,1.195.496.2647.2974.3971.6907.3971,1.1806v4.0225h-1.3091v-3.665c0-.6253-.2579-.9372-.7736-.9372-.2381,0-.483.0958-.7341.2875-.2153.1689-.4032.3887-.5652.6595v3.6551h-1.2795v-5.5751h1.2392v.0008h0Z"/>
    <path id="path9271" class="cls-1" d="m55.111,70.9862v1.8203h1.2498v.9326h-1.2498v3.0602c0,.5355.2297.8033.6892.8033.248,0,.4648-.0213.6496-.0647l-.0494.9128c-.2807.0434-.6131.0647-.9973.0647-.5652,0-.9722-.1354-1.2201-.407-.2214-.2411-.3324-.6002-.3324-1.0764v-3.293h-.8329v-.9326h.8329v-1.5328l1.2605-.2875h0Z"/>
    <path id="path9273" class="cls-1" d="m65.8982,70.5001v1.106h-2.3459v6.7754h-1.3837v-6.7754h-2.3262v-1.106h6.0558Z"/>
    <path id="path9275" class="cls-1" d="m68.3088,72.8065v5.5751h-1.2795v-5.5751h1.2795Zm.0548-2.3064v1.3091h-1.3837v-1.3091h1.3837Z"/>
    <path id="path9277" class="cls-1" d="m71.1759,72.8065v.9767c.4762-.7341,1.0612-1.1007,1.7557-1.1007.3872,0,.7059.1126.9569.337.2084.1917.3469.4427.4169.7538.4792-.7272,1.068-1.0908,1.7655-1.0908.4929,0,.8763.1651,1.1509.496.248.2944.372.6877.372,1.1806v4.0225h-1.2795v-3.665c0-.6253-.2579-.9372-.7736-.9372-.2312,0-.461.0989-.6892.2974-.1947.1719-.3537.3887-.4762.6496v3.6551h-1.2597v-3.665c0-.6253-.2297-.9372-.6892-.9372-.235,0-.4693.0974-.7044.2929-.2054.1719-.3735.3902-.5059.6549v3.6551h-1.2597v-5.5751h1.2194v-.0008.0002Z"/>
    <path id="path9279" class="cls-1" d="m83.9021,75.872h-3.7692c.0068.5819.1422,1.0284.407,1.3388.2411.2807.5736.4214.9973.4214.5987,0,.9904-.3537,1.1753-1.0612l1.1608.337c-.3507,1.0779-1.1342,1.6172-2.3513,1.6172-.8892,0-1.5655-.2875-2.0287-.8634-.407-.5028-.6101-1.1806-.6101-2.0333,0-.9653.2647-1.7161.7934-2.2516.4534-.4633,1.0315-.6945,1.7359-.6945.7873,0,1.4088.286,1.8652.858.4169.5188.6253,1.2087.6253,2.0683l-.0008.2632h0Zm-1.2498-.8436c-.0631-.9752-.4693-1.4628-1.2201-1.4628-.407,0-.7226.1491-.9471.4465-.1917.2548-.3028.5933-.3324,1.017l2.4996-.0008h0Z"/>
    <path id="path9281" class="cls-1" d="m89.2147,74.1065l-1.2103.3469c-.1392-.5987-.4693-.8976-.9919-.8976-.2845,0-.5074.0662-.6694.1985-.1354.1057-.2031.2396-.2031.4016,0,.235.0745.41.2229.5256.1392.1057.3948.2084.7691.3073l.4663.124c.6747.1788,1.1387.4085,1.3936.6892.2252.248.337.5834.337,1.0071,0,.5553-.213.9851-.6397,1.2894-.394.2845-.9326.4267-1.6172.4267-1.2133,0-1.9892-.4648-2.3262-1.3936l1.1905-.4169c.1788.6253.5667.9372,1.1654.9372.6778,0,1.017-.2396,1.017-.7188,0-.2381-.0791-.4115-.2381-.5211-.1354-.089-.4153-.1947-.8383-.3172l-.4663-.1293c-.6451-.1719-1.0863-.3971-1.3243-.6747-.2084-.2449-.3126-.585-.3126-1.0216,0-.499.2031-.8946.6101-1.1851.3735-.2678.8679-.4016,1.4833-.4016,1.1342,0,1.8614.4747,2.1824,1.424h-.0002Z"/>
  </g>
</svg>